<svg width="24" height="24" viewBox="0 0 24 24" fill="none" xmlns="http://www.w3.org/2000/svg">
<path d="M17.1375 11H13V6.8625C13 6.59728 12.8946 6.34293 12.7071 6.15539C12.5196 5.96785 12.2652 5.8625 12 5.8625C11.7348 5.8625 11.4804 5.96785 11.2929 6.15539C11.1054 6.34293 11 6.59728 11 6.8625V11H6.8625C6.59729 11 6.34293 11.1054 6.1554 11.2929C5.96786 11.4804 5.8625 11.7348 5.8625 12C5.8625 12.2652 5.96786 12.5196 6.1554 12.7071C6.34293 12.8946 6.59729 13 6.8625 13H11V17.1375C11 17.4027 11.1054 17.6571 11.2929 17.8446C11.4804 18.0321 11.7348 18.1375 12 18.1375C12.2652 18.1375 12.5196 18.0321 12.7071 17.8446C12.8946 17.6571 13 17.4027 13 17.1375V13H17.1375C17.4027 13 17.6571 12.8946 17.8446 12.7071C18.0322 12.5196 18.1375 12.2652 18.1375 12C18.1375 11.7348 18.0322 11.4804 17.8446 11.2929C17.6571 11.1054 17.4027 11 17.1375 11Z" fill="#95969E"/>
<path d="M12 21.3275C10.1552 21.3275 8.35181 20.7804 6.81791 19.7555C5.28401 18.7306 4.08848 17.2738 3.3825 15.5695C2.67653 13.8651 2.49181 11.9896 2.85171 10.1803C3.21162 8.37093 4.09998 6.70893 5.40445 5.40446C6.70893 4.09998 8.37093 3.21163 10.1803 2.85172C11.9896 2.49182 13.8651 2.67653 15.5695 3.38251C17.2738 4.08849 18.7306 5.28402 19.7555 6.81791C20.7804 8.35181 21.3275 10.1552 21.3275 12C21.3245 14.4729 20.3408 16.8436 18.5922 18.5922C16.8436 20.3408 14.4729 21.3245 12 21.3275ZM12 4.6725C10.5507 4.6725 9.13405 5.10225 7.92905 5.9074C6.72405 6.71256 5.78486 7.85696 5.23026 9.19588C4.67566 10.5348 4.53055 12.0081 4.81329 13.4295C5.09602 14.8509 5.7939 16.1565 6.81866 17.1813C7.84343 18.2061 9.14907 18.904 10.5705 19.1867C11.9919 19.4694 13.4652 19.3243 14.8041 18.7697C16.143 18.2151 17.2874 17.2759 18.0926 16.0709C18.8977 14.8659 19.3275 13.4492 19.3275 12C19.3252 10.0573 18.5524 8.1949 17.1788 6.82123C15.8051 5.44756 13.9427 4.67481 12 4.6725Z" fill="#95969E"/>
</svg>
