<svg width="24" height="24" viewBox="0 0 24 24" fill="none" xmlns="http://www.w3.org/2000/svg">
<path d="M15.0376 4.31844C15.0127 4.0556 14.8788 3.8127 14.6647 3.64204L11.6251 1.23164C11.18 0.879114 10.5183 0.93517 10.1454 1.35746C9.7738 1.77974 9.83288 2.40757 10.278 2.76134L11.4137 3.66197C6.73025 3.90737 3 7.59833 3 12.1015C3 14.2702 3.86527 16.3331 5.43431 17.9088C5.64046 18.1156 5.91881 18.2203 6.19717 18.2203C6.45583 18.2203 6.71581 18.1306 6.91932 17.9475C7.3408 17.5688 7.35918 16.9385 6.96134 16.5386C5.76125 15.3353 5.10081 13.7595 5.10081 12.1015C5.10081 8.66089 7.95003 5.84067 11.5267 5.65132L10.6443 6.65285C10.2727 7.07514 10.3318 7.70421 10.7769 8.05674C10.9739 8.21245 11.2129 8.28843 11.4505 8.28843C11.7512 8.28843 12.0492 8.16636 12.2567 7.93092L14.7974 5.04592C14.9772 4.84412 15.0626 4.58128 15.0376 4.31844Z" fill="#95969E"/>
<path d="M21 11.8992C21 9.73048 20.1348 7.66763 18.5657 6.09185C18.1666 5.69198 17.5022 5.67454 17.0807 6.05198C16.6592 6.43067 16.6408 7.06099 17.0387 7.46085C18.2388 8.66543 18.8992 10.2412 18.8992 11.898C18.8992 15.3385 16.05 18.1588 12.4734 18.3481L13.3557 17.3466C13.7273 16.9243 13.6682 16.2965 13.2231 15.9427C12.778 15.5902 12.1149 15.6462 11.7433 16.0685L9.20266 18.9535C8.83108 19.3758 8.89016 20.0036 9.33527 20.3574L12.3762 22.7678C12.5731 22.9235 12.8121 22.9995 13.0498 22.9995C13.3504 22.9995 13.6485 22.8774 13.856 22.642C14.2275 22.2197 14.1684 21.5919 13.7233 21.2381L12.5876 20.3375C17.2698 20.0933 21 16.4011 21 11.8992Z" fill="#95969E"/>
</svg>
